#!OML:ASF E:\VariousWalksJay\Project 1\Capture day 1\Session 1\Actor2.ASF
:FULLY-SPECIFIED
:DEGREES
690
root 6.56652 16.2248 3.44396 21.8709 -44.2809 -12.5123
lowerback 18.3612 -2.30807 7.83639
upperback 15.5105 -2.65426 -3.1364
thorax 6.33728 -0.72837 -7.52042
lowerneck 3.38549 2.38656 2.53194
upperneck -6.83 3.49428 2.16205
head -2.74929 1.59462 0.138959
rclavicle -6.36111e-014 6.99722e-014
rhumerus -38.3286 14.0432 -94.4255
rradius 67.5282
rwrist 6.20926
rhand -27.3041 -7.04815
rfingers 7.12502
rthumb -0.71375 -37.0267
lclavicle -6.36111e-014 6.99722e-014
lhumerus 15.8969 -23.4786 67.2522
lradius 70.1098
lwrist 54.1945
lhand -38.3245 8.75942
lfingers 7.12502
lthumb -11.3523 38.4322
rfemur -24.615 2.62557 34.7985
rtibia 52.5753
rfoot -35.3549 -17.1758
rtoes -23.6999
lfemur -51.1671 6.57054 -12.8193
ltibia 21.8813
lfoot -1.47323 12.4598
ltoes -9.89264
691
root 6.50738 16.2601 3.55979 22.0769 -44.3252 -12.4706
lowerback 18.0573 -2.27207 7.8076
upperback 15.3884 -2.61942 -3.12925
thorax 6.356 -0.712377 -7.50515
lowerneck 3.31016 2.37025 2.53676
upperneck -6.68613 3.46461 2.14932
head -2.68644 1.58358 0.137129
rclavicle -1.59028e-014 -1.11319e-014
rhumerus -38.5313 13.9619 -94.4256
rradius 67.517
rwrist 6.26101
rhand -27.322 -7.0521
rfingers 7.12502
rthumb -0.731098 -37.0306
lclavicle -1.59028e-014 -1.11319e-014
lhumerus 15.3666 -23.7293 67.5905
lradius 70.1661
lwrist 54.1825
lhand -38.3227 8.74446
lfingers 7.12502
lthumb -11.3505 38.4173
rfemur -24.0485 2.60838 34.5496
rtibia 51.8388
rfoot -35.1256 -16.9602
rtoes -23.9671
lfemur -51.2147 6.71813 -13.1097
ltibia 22.2964
lfoot -1.30304 12.2485
ltoes -9.96959
692
root 6.4487 16.2941 3.67608 22.2853 -44.3771 -12.4257
lowerback 17.7588 -2.23128 7.77421
upperback 15.2674 -2.57868 -3.12225
thorax 6.37513 -0.69385 -7.48797
lowerneck 3.25616 2.34889 2.54252
upperneck -6.57573 3.4297 2.13147
head -2.63885 1.56923 0.133117
rclavicle 4.6118e-014 -2.38542e-014
rhumerus -38.7184 13.8883 -94.4196
rradius 67.4993
rwrist 6.29043
rhand -27.3336 -7.06019
rfingers 7.12502
rthumb -0.742253 -37.0386
lclavicle 4.6118e-014 -2.38542e-014
lhumerus 14.8443 -23.9876 67.9188
lradius 70.2399
lwrist 54.2007
lhand -38.3253 8.71654
lfingers 7.12502
lthumb -11.353 38.3892
rfemur -23.5021 2.60324 34.2924
rtibia 51.1256
rfoot -34.8686 -16.7583
rtoes -24.3117
lfemur -51.2725 6.85624 -13.3931
ltibia 22.728
lfoot -1.15189 12.0486
ltoes -10.0113
693
root 6.39036 16.3268 3.79253 22.5 -44.4292 -12.3905
lowerback 17.473 -2.18316 7.75071
upperback 15.1496 -2.52681 -3.11407
thorax 6.39452 -0.668963 -7.47633
lowerneck 3.21432 2.31853 2.56094
upperneck -6.49526 3.38463 2.11173
head -2.60343 1.54884 0.126278
rclavicle 1.43125e-014 7.07673e-014
rhumerus -38.8875 13.8008 -94.4074
rradius 67.4771
rwrist 6.3124
rhand -27.3445 -7.06671
rfingers 7.12502
rthumb -0.752825 -37.0451
lclavicle 1.43125e-014 7.07673e-014
lhumerus 14.3389 -24.269 68.2349
lradius 70.3347
lwrist 54.2425
lhand -38.3286 8.6874
lfingers 7.12502
lthumb -11.3562 38.3599
rfemur -22.9673 2.60691 34.0391
rtibia 50.4312
rfoot -34.6015 -16.5426
rtoes -24.6597
lfemur -51.3424 6.9918 -13.6631
ltibia 23.1836
lfoot -1.02033 11.8573
ltoes -10.0342
694
root 6.3323 16.3582 3.90874 22.7075 -44.4803 -12.3555
lowerback 17.2086 -2.13315 7.71677
upperback 15.0355 -2.47261 -3.10108
thorax 6.4082 -0.644485 -7.45293
lowerneck 3.18019 2.28817 2.58164
upperneck -6.43394 3.34019 2.08612
head -2.57577 1.52846 0.116907
rclavicle 1.59028e-015 3.18055e-015
rhumerus -39.0426 13.7256 -94.3886
rradius 67.4548
rwrist 6.30318
rhand -27.3551 -7.06702
rfingers 7.12502
rthumb -0.763075 -37.0454
lclavicle 1.59028e-015 3.18055e-015
lhumerus 13.8389 -24.5531 68.5429
lradius 70.4535
lwrist 54.3025
lhand -38.333 8.66328
lfingers 7.12502
lthumb -11.3604 38.3356
rfemur -22.4377 2.60931 33.7863
rtibia 49.7531
rfoot -34.3188 -16.3313
rtoes -25.0512
lfemur -51.4209 7.13341 -13.9348
ltibia 23.6648
lfoot -0.906828 11.6719
ltoes -10.0327
695
root 6.27432 16.3881 4.02472 22.91 -44.5253 -12.3282
lowerback 16.964 -2.08297 7.68141
upperback 14.9254 -2.41741 -3.08234
thorax 6.41712 -0.620274 -7.42185
lowerneck 3.15386 2.25916 2.60046
upperneck -6.38263 3.29809 2.06071
head -2.55299 1.50904 0.107655
rclavicle 2.8625e-014 3.65764e-014
rhumerus -39.1878 13.658 -94.3638
rradius 67.4328
rwrist 6.29282
rhand -27.3679 -7.0715
rfingers 7.12502
rthumb -0.775449 -37.0498
lclavicle 2.8625e-014 3.65764e-014
lhumerus 13.3445 -24.8416 68.8413
lradius 70.5937
lwrist 54.3695
lhand -38.3309 8.65458
lfingers 7.12502
lthumb -11.3584 38.327
rfemur -21.9064 2.60437 33.5421
rtibia 49.0877
rfoot -34.0308 -16.112
rtoes -25.4411
lfemur -51.5061 7.29241 -14.2127
ltibia 24.1732
lfoot -0.808807 11.4895
ltoes -10.041
696
root 6.2163 16.4168 4.14052 23.1029 -44.5615 -12.3037
lowerback 16.7364 -2.03389 7.64345
upperback 14.82 -2.36317 -3.05923
thorax 6.42301 -0.597193 -7.38379
lowerneck 3.12131 2.23291 2.62081
upperneck -6.32152 3.25944 2.03757
head -2.52584 1.49144 0.0989036
rclavicle 1.11319e-014 -3.10104e-014
rhumerus -39.327 13.5956 -94.3361
rradius 67.4167
rwrist 6.27118
rhand -27.3837 -7.07532
rfingers 7.12502
rthumb -0.790678 -37.0536
lclavicle 1.11319e-014 -3.10104e-014
lhumerus 12.8531 -25.1297 69.1363
lradius 70.7542
lwrist 54.4277
lhand -38.3287 8.64752
lfingers 7.12502
lthumb -11.3563 38.32
rfemur -21.371 2.58418 33.3045
rtibia 48.4328
rfoot -33.7418 -15.8783
rtoes -25.8034
lfemur -51.5944 7.4715 -14.5036
ltibia 24.7053
lfoot -0.729942 11.3157
ltoes -10.0286
697
root 6.15815 16.4444 4.25642 23.2874 -44.5857 -12.2829
lowerback 16.5176 -1.99071 7.60628
upperback 14.719 -2.31623 -3.03137
thorax 6.42855 -0.577986 -7.33977
lowerneck 3.07806 2.21254 2.63521
upperneck -6.23766 3.22752 2.01727
head -2.48932 1.47776 0.0921468
rclavicle -2.38542e-014 -2.06736e-014
rhumerus -39.4626 13.5486 -94.3065
rradius 67.403
rwrist 6.2499
rhand -27.4059 -7.0732
rfingers 7.12502
rthumb -0.812132 -37.0514
lclavicle -2.38542e-014 -2.06736e-014
lhumerus 12.3603 -25.4095 69.4274
lradius 70.9297
lwrist 54.4723
lhand -38.3274 8.64232
lfingers 7.12502
lthumb -11.3551 38.3149
rfemur -20.831 2.54072 33.0753
rtibia 47.7878
rfoot -33.4466 -15.6372
rtoes -26.1562
lfemur -51.6844 7.67567 -14.8122
ltibia 25.2562
lfoot -0.666637 11.1449
ltoes -10.0074
698
root 6.09995 16.4708 4.37214 23.4638 -44.5998 -12.266
lowerback 16.3087 -1.948 7.57562
upperback 14.6216 -2.26878 -3.00153
thorax 6.43358 -0.558076 -7.29711
lowerneck 3.02765 2.19249 2.6458
upperneck -6.1309 3.19558 2.00767
head -2.44419 1.4643 0.0896699
rclavicle 4.29375e-014 -5.96354e-014
rhumerus -39.5973 13.495 -94.2764
rradius 67.3962
rwrist 6.2382
rhand -27.4266 -7.07423
rfingers 7.12502
rthumb -0.832119 -37.0524
lclavicle 4.29375e-014 -5.96354e-014
lhumerus 11.8734 -25.6964 69.7137
lradius 71.117
lwrist 54.499
lhand -38.3328 8.61918
lfingers 7.12502
lthumb -11.3602 38.2915
rfemur -20.2891 2.4778 32.8555
rtibia 47.155
rfoot -33.1389 -15.3955
rtoes -26.4968
lfemur -51.773 7.90253 -15.134
ltibia 25.8186
lfoot -0.614313 10.9777
ltoes -9.97964
699
root 6.04177 16.4965 4.48789 23.6304 -44.6075 -12.2462
lowerback 16.1032 -1.9103 7.54403
upperback 14.5276 -2.22788 -2.97255
thorax 6.43989 -0.541381 -7.25398
lowerneck 2.96459 2.17779 2.65209
upperneck -5.99651 3.16972 2.00418
head -2.38783 1.4544 0.0900164
rclavicle 5.725e-014 2.70347e-014
rhumerus -39.7293 13.4555 -94.2513
rradius 67.3899
rwrist 6.24118
rhand -27.4561 -7.07223
rfingers 7.12502
rthumb -0.860641 -37.0502
lclavicle 5.725e-014 2.70347e-014
lhumerus 11.3882 -25.9752 69.9931
lradius 71.3093
lwrist 54.5133
lhand -38.3482 8.58163
lfingers 7.12502
lthumb -11.3751 38.2531
rfemur -19.7501 2.39757 32.6373
rtibia 46.5377
rfoot -32.8181 -15.1424
rtoes -26.8006
lfemur -51.8594 8.14807 -15.4717
ltibia 26.3855
lfoot -0.5713 10.8057
ltoes -9.95486
